<?xml version="1.0" encoding="UTF-8" standalone="no"?>
<!-- Created with Inkscape (http://www.inkscape.org/) -->

<svg
   xmlns:dc="http://purl.org/dc/elements/1.1/"
   xmlns:cc="http://creativecommons.org/ns#"
   xmlns:rdf="http://www.w3.org/1999/02/22-rdf-syntax-ns#"
   xmlns:svg="http://www.w3.org/2000/svg"
   xmlns="http://www.w3.org/2000/svg"
   xmlns:sodipodi="http://sodipodi.sourceforge.net/DTD/sodipodi-0.dtd"
   xmlns:inkscape="http://www.inkscape.org/namespaces/inkscape"
   width="1920"
   height="1080"
   viewBox="0 0 507.99999 285.75001"
   version="1.1"
   id="svg8"
   inkscape:version="0.92.3 (2405546, 2018-03-11)"
   sodipodi:docname="fsalpha.svg">
  <defs
     id="defs2" />
  <sodipodi:namedview
     id="base"
     pagecolor="#ffffff"
     bordercolor="#666666"
     borderopacity="1.0"
     inkscape:pageopacity="0.0"
     inkscape:pageshadow="2"
     inkscape:zoom="0.35"
     inkscape:cx="350"
     inkscape:cy="560"
     inkscape:document-units="px"
     inkscape:current-layer="layer1"
     showgrid="false"
     units="px"
     inkscape:window-width="1853"
     inkscape:window-height="1017"
     inkscape:window-x="67"
     inkscape:window-y="34"
     inkscape:window-maximized="1" />
  <metadata
     id="metadata5">
    <rdf:RDF>
      <cc:Work
         rdf:about="">
        <dc:format>image/svg+xml</dc:format>
        <dc:type
           rdf:resource="http://purl.org/dc/dcmitype/StillImage" />
        <dc:title></dc:title>
      </cc:Work>
    </rdf:RDF>
  </metadata>
  <g
     inkscape:label="Layer 1"
     inkscape:groupmode="layer"
     id="layer1"
     transform="translate(0,-11.249983)">
    <g
       transform="matrix(0.26458334,0,0,0.26458334,161.29977,97.403627)"
       id="g8">
      <path
         style="fill:#666666"
         inkscape:connector-curvature="0"
         d="m -7.5607,119.35 v 52.917 h 52.917 V 119.35 Z m 23.529,9.8995 c 5.8687,0 9.3597,3.0004 10.473,9.0012 l 2.8022,-8.2934 h 4.6422 l -5.8027,17.181 1.1322,6.199 c 0.16984,0.92465 0.58507,1.7738 1.2455,2.5475 0.77369,0.90578 1.4625,1.3586 2.0663,1.3586 h 2.4908 v 4.4158 h -3.1135 c -1.7738,0 -3.4533,-0.79262 -5.0385,-2.3777 -0.7737,-0.79257 -1.3209,-2.0192 -1.6417,-3.6797 -0.86805,2.0946 -2.189,3.9628 -3.9629,5.6046 -0.8303,0.77369 -2.5947,1.1605 -5.2931,1.1605 -4.4345,0 -7.7273,-1.4341 -9.8786,-4.3024 -2.2078,-2.9626 -3.3118,-7.0386 -3.3118,-12.228 0,-5.5479 1.1983,-9.624 3.5948,-12.228 2.6607,-2.906 5.8592,-4.359 9.5956,-4.359 z m 0,4.4158 c -2.5286,0 -4.3684,1.0379 -5.5195,3.1136 -1.453,2.6041 -2.1795,5.6234 -2.1795,9.0578 0,4.1515 0.70763,7.2179 2.1229,9.1993 1.4341,2.0191 3.2928,3.0287 5.5761,3.0287 2.5286,0 4.4723,-2.0098 5.8309,-6.0292 l 1.7267,-5.1232 -1.2455,-6.5386 c -0.84917,-4.4723 -2.9532,-6.7084 -6.3122,-6.7084 z"
         id="path2" />
      <text
         x="57.788521"
         y="159.36481"
         font-size="38.729px"
         letter-spacing="0px"
         style="font-size:38.72900009px;line-height:1.25;font-family:'Share Tech';font-variant-ligatures:normal;font-variant-caps:normal;font-variant-numeric:normal;font-feature-settings:normal;letter-spacing:0px;word-spacing:0px;fill:#999999;stroke-width:0.96822"
         word-spacing="0px"
         xml:space="preserve"
         id="text6">       <tspan
   x="57.788521"
   y="159.36481"
   font-size="38.729px"
   style="font-size:38.72900009px;font-family:'Share Tech';font-variant-ligatures:normal;font-variant-caps:normal;font-variant-numeric:normal;font-feature-settings:normal;fill:#999999;stroke-width:0.96822"
   id="tspan4"> FS ^lpha</tspan>    </text>
    </g>
  </g>
</svg>
