<?xml version="1.0" encoding="UTF-8" standalone="no"?>
<svg
   xmlns:dc="http://purl.org/dc/elements/1.1/"
   xmlns:cc="http://creativecommons.org/ns#"
   xmlns:rdf="http://www.w3.org/1999/02/22-rdf-syntax-ns#"
   xmlns:svg="http://www.w3.org/2000/svg"
   xmlns="http://www.w3.org/2000/svg"
   xmlns:sodipodi="http://sodipodi.sourceforge.net/DTD/sodipodi-0.dtd"
   xmlns:inkscape="http://www.inkscape.org/namespaces/inkscape"
   sodipodi:docname="fsgamma.svg"
   inkscape:version="1.1-dev (1:0.92.0+devel+202005060039+b792700)"
   id="svg8"
   version="1.1"
   viewBox="0 0 507.99999 285.75001"
   height="1080"
   width="1920">
  <defs
     id="defs2" />
  <sodipodi:namedview
     inkscape:window-maximized="1"
     inkscape:window-y="34"
     inkscape:window-x="67"
     inkscape:window-height="1017"
     inkscape:window-width="1853"
     units="px"
     showgrid="false"
     inkscape:current-layer="layer1"
     inkscape:document-units="px"
     inkscape:cy="291.84073"
     inkscape:cx="656.88757"
     inkscape:zoom="0.35"
     inkscape:pageshadow="2"
     inkscape:pageopacity="0.0"
     borderopacity="1.0"
     bordercolor="#666666"
     pagecolor="#ffffff"
     id="base" />
  <metadata
     id="metadata5">
    <rdf:RDF>
      <cc:Work
         rdf:about="">
        <dc:format>image/svg+xml</dc:format>
        <dc:type
           rdf:resource="http://purl.org/dc/dcmitype/StillImage" />
      </cc:Work>
    </rdf:RDF>
  </metadata>
  <g
     transform="translate(0,-11.249983)"
     id="layer1"
     inkscape:groupmode="layer"
     inkscape:label="Layer 1">
    <g
       style="stroke-width:1.94656"
       transform="matrix(0.51372706,0,0,0.51372706,517.4454,44.966927)"
       id="g841">
      <rect
         style="opacity:1;fill:#f2f2f2;fill-opacity:1;stroke:none;stroke-width:30.9016;stroke-miterlimit:4;stroke-dasharray:none;stroke-dashoffset:0;stroke-opacity:1"
         id="rect826"
         width="195.12247"
         height="195.12247"
         x="-217.02876"
         y="-59.722157" />
      <text
         xml:space="preserve"
         style="font-style:normal;font-variant:normal;font-weight:normal;font-stretch:normal;font-size:166.527px;line-height:1.25;font-family:'mont seerat';-inkscape-font-specification:'mont seerat';letter-spacing:0px;word-spacing:0px;fill:#000000;fill-opacity:1;stroke:none;stroke-width:0.515028"
         x="-173.58083"
         y="98.538658"
         id="text830"><tspan
           sodipodi:role="line"
           id="tspan828"
           style="stroke-width:0.515028"
           x="-173.58083"
           y="98.538658">Γ</tspan></text>
    </g>
    <g
       style="font-size:138.882px;font-family:'mont seerat';-inkscape-font-specification:'mont seerat';letter-spacing:0px;word-spacing:0px;fill:#000000;stroke-width:0.264584"
       id="text834"
       aria-label="Ω
" />
    <path
       d="M 90.936927,59.287208 V 204.20601 H 235.85625 V 59.287208 Z M 163.363,80.513298 c 13.69832,0 24.90982,4.45322 33.63516,13.35939 8.68012,8.860962 13.02039,20.276402 13.02039,34.245982 0,8.77054 -1.60485,16.50093 -4.81469,23.19186 -3.20984,6.69093 -8.45425,13.22382 -15.73289,19.59829 h 21.70048 v 12.07058 h -40.68847 v -12.07058 c 8.00199,-4.38527 14.241,-10.3304 18.71669,-17.83509 4.47569,-7.50469 6.7138,-15.82285 6.7138,-24.95506 0,-10.85016 -2.98381,-19.55319 -8.95139,-26.10849 -5.96759,-6.555302 -13.83394,-9.832992 -23.59908,-9.832992 -9.76514,0 -17.65449,3.30017 -23.66729,9.900692 -5.96759,6.5553 -8.95139,15.23584 -8.95139,26.04079 0,9.13221 2.23811,17.45037 6.7138,24.95506 4.5209,7.50469 10.80488,13.44982 18.85208,17.83509 v 12.07058 h -40.68796 v -12.07058 h 21.63227 c -7.14302,-6.28405 -12.36442,-12.79445 -15.66467,-19.53059 -3.25506,-6.73614 -4.88291,-14.26312 -4.88291,-22.58157 0,-14.37646 4.34027,-26.0178 13.02039,-34.923972 8.63492,-8.90617 19.84694,-13.35939 33.63568,-13.35939 z"
       style="color:#000000;fill:#f2f2f2;stroke-width:15.875"
       id="path859" />
  </g>
</svg>
