<?xml version="1.0" encoding="UTF-8"?>
<!-- Created with Inkscape (http://www.inkscape.org/) -->
<svg width="1e3" height="272.72" version="1.1" viewBox="0 0 264.58 72.158" xmlns="http://www.w3.org/2000/svg" xmlns:cc="http://creativecommons.org/ns#" xmlns:dc="http://purl.org/dc/elements/1.1/" xmlns:rdf="http://www.w3.org/1999/02/22-rdf-syntax-ns#">
 <metadata>
  <rdf:RDF>
   <cc:Work rdf:about="">
    <dc:format>image/svg+xml</dc:format>
    <dc:type rdf:resource="http://purl.org/dc/dcmitype/StillImage"/>
    <dc:title/>
   </cc:Work>
  </rdf:RDF>
 </metadata>
 <g transform="translate(0 -224.84)">
  <g transform="translate(-12.094 211.67)">
   <path d="m12.094 13.175v72.158h72.158v-72.158zm32.084 13.499c8.0027 0 12.763 4.0913 14.281 12.274l3.8211-11.309h6.3301l-7.9126 23.429 1.5439 8.453c0.2316 1.2609 0.7978 2.4188 1.6984 3.4738 1.055 1.2352 1.9942 1.8527 2.8177 1.8527h3.3965v6.0213h-4.2456c-2.4188 0-4.709-1.0808-6.8705-3.2423-1.055-1.0807-1.8012-2.7533-2.2387-5.0177-1.1837 2.8562-2.985 5.4038-5.4038 7.6424-1.1322 1.0551-3.5381 1.5825-7.2178 1.5825-6.047 0-10.537-1.9556-13.471-5.8668-3.0106-4.04-4.5161-9.598-4.5161-16.674 0-7.5653 1.634-13.124 4.902-16.674 3.6282-3.9627 7.9898-5.944 13.085-5.944zm0 6.0213c-3.4481 0-5.9569 1.4153-7.5265 4.2458-1.9814 3.5511-2.972 7.6681-2.972 12.351 0 5.661 0.9649 9.8424 2.8948 12.544 1.9556 2.7534 4.4901 4.1301 7.6037 4.1301 3.4481 0 6.0985-2.7406 7.9512-8.2215l2.3546-6.9861-1.6984-8.9162c-1.158-6.0985-4.0271-9.1477-8.6074-9.1477z" fill="#666"/>
   <text x="101.20531" y="67.738541" fill="#999999" font-family="'Share Tech'" font-size="52.812px" letter-spacing="0px" stroke-width="1.3203" word-spacing="0px" style="font-feature-settings:normal;font-variant-caps:normal;font-variant-ligatures:normal;font-variant-numeric:normal;line-height:1.25" xml:space="preserve"><tspan x="101.20531" y="67.738541" fill="#999999" font-family="'Share Tech'" font-size="52.812px" stroke-width="1.3203" style="font-feature-settings:normal;font-variant-caps:normal;font-variant-ligatures:normal;font-variant-numeric:normal">FS ^lpha</tspan></text>
  </g>
 </g>
</svg>
