<?xml version="1.0" encoding="UTF-8" standalone="no"?>
<svg
   xmlns:dc="http://purl.org/dc/elements/1.1/"
   xmlns:cc="http://creativecommons.org/ns#"
   xmlns:rdf="http://www.w3.org/1999/02/22-rdf-syntax-ns#"
   xmlns:svg="http://www.w3.org/2000/svg"
   xmlns="http://www.w3.org/2000/svg"
   id="svg14"
   viewBox="0 0 52.916 52.917278"
   version="1.1"
   height="200"
   width="200">
  <defs
     id="defs18" />
  <metadata
     id="metadata2">
    <rdf:RDF>
      <cc:Work
         rdf:about="">
        <dc:format>image/svg+xml</dc:format>
        <dc:type
           rdf:resource="http://purl.org/dc/dcmitype/StillImage" />
      </cc:Work>
    </rdf:RDF>
  </metadata>
  <path
     style="stroke-width:0.999998"
     id="path4"
     fill="#666666"
     d="M -6.39e-4,0 V 52.917278 H 52.91664 V 0 Z M 23.52825,9.8995305 c 5.86881,0 9.35979,3.0003665 10.47302,9.0011735 l 2.80221,-8.293488 h 4.6422 l -5.80273,17.181725 1.13223,6.199032 c 0.16984,0.924685 0.58506,1.773834 1.24552,2.547521 0.77369,0.905838 1.46245,1.358683 2.06637,1.358683 h 2.49083 v 4.415738 h -3.11352 c -1.77383,0 -3.45336,-0.792608 -5.0385,-2.37775 -0.77369,-0.792535 -1.32092,-2.019141 -1.64176,-3.679745 -0.86807,2.094603 -2.18906,3.962892 -3.96289,5.604576 -0.8303,0.773761 -2.59468,1.160531 -5.2932,1.160531 -4.43458,0 -7.727335,-1.434145 -9.878991,-4.302435 -2.207832,-2.962745 -3.311895,-7.038721 -3.311895,-12.227926 0,-5.548034 1.198298,-9.624523 3.594896,-12.227926 2.66075,-2.906057 5.859342,-4.3590495 9.59592,-4.3590495 z m 0,4.4157375 c -2.528669,0 -4.368505,1.037915 -5.519576,3.11367 -1.453065,2.60421 -2.179524,5.623423 -2.179524,9.057642 0,4.15151 0.707612,7.217952 2.12291,9.199178 1.434144,2.019214 3.292827,3.028821 5.57619,3.028821 2.52868,0 4.47236,-2.009827 5.83104,-6.029261 l 1.72675,-5.123276 -1.24552,-6.538721 c -0.84923,-4.472353 -2.95329,-6.708493 -6.31227,-6.708493 z" />
</svg>
