<svg viewBox="0 0 52.917 52.917" xmlns="http://www.w3.org/2000/svg" xmlns:cc="http://creativecommons.org/ns#" xmlns:dc="http://purl.org/dc/elements/1.1/" xmlns:rdf="http://www.w3.org/1999/02/22-rdf-syntax-ns#">
 <g transform="translate(0 -244.08)">
  <path class="fs-Logo" d="m0 244.08v52.917h52.917v-52.917zm26.406 7.8925v4.3e-4a6.1887 18.566 0 0 1 4.19 4.7843 1.4672 1.4672 0 0 1 0.2571-0.0253 1.4672 1.4672 0 0 1 1.4795 1.4506v0.0164a1.4672 1.4672 0 0 1-0.8937 1.3488 6.1887 18.566 0 0 1 0.3754 1.7127 6.1887 18.566 60 0 1 10.747 0.04 6.1887 18.566 60 0 1-5.3977 9.2381 18.566 6.1887 30 0 1 1.3363 1.2158 1.4672 1.4672 0 0 1 0.774-0.2291 1.4672 1.4672 0 0 1 1.4796 1.4506v0.0164a1.4672 1.4672 0 0 1-0.2834 0.86436 18.566 6.1887 30 0 1 2.0748 5.9498 18.566 6.1887 30 0 1-10.735 7e-3 6.1887 18.566 0 0 1-5.3354 9.291 6.1887 18.566 0 0 1-5.3728-9.2897 6.1887 18.566 60 0 1-10.731-9e-3 6.1887 18.566 60 0 1 2.3959-6.327 1.4672 1.4672 0 0 1-0.1361-0.60454 1.4672 1.4672 0 0 1 1.4546-1.4756 1.4672 1.4672 0 0 1 0.5832 0.11612 6.1887 18.566 60 0 1 1.0836-0.9769 18.566 6.1887 30 0 1-5.3982-9.2381 18.566 6.1887 30 0 1 10.752-0.0386 6.1887 18.566 0 0 1 5.3003-9.2888zm0.1615 1.3924a5.4151 17.174 0 0 0-4.5685 8.2234 18.566 6.1887 30 0 1 4.4591 1.9378 6.1887 18.566 60 0 1 4.7496-2.0472 5.4151 17.174 0 0 0-0.4061-1.8168 1.4672 1.4672 0 0 1-1.403-1.4555 1.4672 1.4672 0 0 1 0.5569-1.1584 5.4151 17.174 0 0 0-3.3879-3.6833zm-11.865 7.2554a17.174 5.4151 30 0 0-3.0619 1.2362 17.174 5.4151 30 0 0 4.8314 8.0633 6.1887 18.566 60 0 1 3.9151-2.8879 6.1887 18.566 0 0 1 0.6001-5.1371 17.174 5.4151 30 0 0-6.2847-1.2745zm23.512 0a5.4151 17.174 60 0 0-6.2856 1.2749 6.1887 18.566 0 0 1 0.6019 5.1371 18.566 6.1887 30 0 1 3.9142 2.8875 5.4151 17.174 60 0 0 4.831-8.0633 5.4151 17.174 60 0 0-3.0614-1.2362zm-6.8902 1.4893a5.4151 17.174 60 0 0-4.1704 1.7696 18.566 6.1887 30 0 1 2.2193 1.1958l0.1797 0.10319a18.566 6.1887 30 0 1 2.3243 1.4257 5.4151 17.174 0 0 0-0.5529-4.4943zm-9.444 0.10231a5.4151 17.174 0 0 0-0.5156 4.1865 6.1887 18.566 60 0 1 1.9996-1.2202l0.1793-0.10319a6.1887 18.566 60 0 1 2.2198-1.1962 17.174 5.4151 30 0 0-3.883-1.6668zm4.5783 2.0031a5.4151 17.174 60 0 0-2.6188 1.4035l-0.1664 0.0957a5.4151 17.174 60 0 0-2.3692 1.4582 5.4151 17.174 0 0 0-0.1059 3.4614 5.4151 17.174 0 0 0 0.083 2.8884 17.174 5.4151 30 0 0 2.6303 1.6192 17.174 5.4151 30 0 0 2.5472 1.375 5.4151 17.174 60 0 0 2.5472-1.375 5.4151 17.174 60 0 0 2.9449-1.8221 5.4151 17.174 0 0 0 0.078-2.7812l-4.6e-4 -0.19171a5.4151 17.174 0 0 0-0.093-2.9676 17.174 5.4151 30 0 0-2.6913-1.6646l-0.1659-0.0957a17.174 5.4151 30 0 0-2.6188-1.4035zm6.1139 3.5944a6.1887 18.566 0 0 1 0.074 2.5214l4.6e-4 0.20729a6.1887 18.566 0 0 1-0.057 2.3412 5.4151 17.174 60 0 0 3.3692-2.5405 17.174 5.4151 30 0 0-3.3866-2.5294zm-12.232 3e-3a5.4151 17.174 60 0 0-3.383 2.5272 17.174 5.4151 30 0 0 3.3666 2.5392 6.1887 18.566 0 0 1-0.054-2.2362 6.1887 18.566 0 0 1 0.071-2.8301zm-4.101 3.1446a5.4151 17.174 60 0 0-1.0387 0.94484 1.4672 1.4672 0 0 1 0.3643 0.94842v0.0164a1.4672 1.4672 0 0 1-1.4631 1.4671 1.4672 1.4672 0 0 1-0.8964-0.30472 5.4151 17.174 60 0 0-1.7051 4.9493 5.4151 17.174 60 0 0 9.4364-0.10096 6.1887 18.566 0 0 1-0.5521-4.835 18.566 6.1887 30 0 1-4.1455-3.0855zm20.438 0a6.1887 18.566 60 0 1-4.1468 3.0863 6.1887 18.566 0 0 1-0.5441 4.8368 17.174 5.4151 30 0 0 9.4298 0.0983 17.174 5.4151 30 0 0-1.48-4.6709 1.4672 1.4672 0 0 1-0.645 0.15214 1.4672 1.4672 0 0 1-1.4711-1.4591 1.4672 1.4672 0 0 1 0.2251-0.78603 17.174 5.4151 30 0 0-1.3679-1.2576zm-4.799 3.5165a6.1887 18.566 60 0 1-2.4155 1.4765 6.1887 18.566 60 0 1-1.9653 1.0716 17.174 5.4151 30 0 0 3.8844 1.6419 5.4151 17.174 0 0 0 0.4965-4.19zm-10.515 0.20463a5.4151 17.174 0 0 0 0.4644 3.8804 5.4151 17.174 60 0 0 3.5908-1.537 18.566 6.1887 30 0 1-1.9649-1.0716 18.566 6.1887 30 0 1-2.0903-1.2718zm5.0948 2.8733a6.1887 18.566 60 0 1-4.4609 1.9382 5.4151 17.174 0 0 0 4.6308 8.223 5.4151 17.174 0 0 0 4.5774-8.1144 18.566 6.1887 30 0 1-4.7474-2.0467z"/>
  <rect x="145.39" y="89.599" width="93.544" height="85.259"/>
  <path d="m161.38 103.04v61.472h61.472v-61.472zm30.676 9.1684v5e-4a7.1893 21.568 0 0 1 4.8674 5.5578 1.7044 1.7044 0 0 1 0.29869-0.0294 1.7044 1.7044 0 0 1 1.7188 1.6852v0.0191a1.7044 1.7044 0 0 1-1.0382 1.5668 7.1893 21.568 0 0 1 0.43615 1.9896 7.1893 21.568 60 0 1 12.485 0.0465 7.1893 21.568 60 0 1-6.2704 10.732 21.568 7.1893 30 0 1 1.5524 1.4123 1.7044 1.7044 0 0 1 0.89917-0.26614 1.7044 1.7044 0 0 1 1.7188 1.6852v0.0191a1.7044 1.7044 0 0 1-0.32918 1.0041 21.568 7.1893 30 0 1 2.4102 6.9117 21.568 7.1893 30 0 1-12.471 8e-3 7.1893 21.568 0 0 1-6.1981 10.793 7.1893 21.568 0 0 1-6.2415-10.792 7.1893 21.568 60 0 1-12.466-0.0103 7.1893 21.568 60 0 1 2.7833-7.3499 1.7044 1.7044 0 0 1-0.15813-0.70228 1.7044 1.7044 0 0 1 1.6898-1.7141 1.7044 1.7044 0 0 1 0.67748 0.13489 7.1893 21.568 60 0 1 1.2588-1.1348 21.568 7.1893 30 0 1-6.2709-10.732 21.568 7.1893 30 0 1 12.49-0.0449 7.1893 21.568 0 0 1 6.1572-10.791zm0.18759 1.6175a6.2906 19.95 0 0 0-5.3072 9.5529 21.568 7.1893 30 0 1 5.18 2.251 7.1893 21.568 60 0 1 5.5175-2.3781 6.2906 19.95 0 0 0-0.47181-2.1105 1.7044 1.7044 0 0 1-1.6299-1.6908 1.7044 1.7044 0 0 1 0.64699-1.3457 6.2906 19.95 0 0 0-3.9357-4.2788zm-13.784 8.4284a19.95 6.2906 30 0 0-3.5569 1.4361 19.95 6.2906 30 0 0 5.6126 9.3669 7.1893 21.568 60 0 1 4.548-3.3548 7.1893 21.568 0 0 1 0.69711-5.9676 19.95 6.2906 30 0 0-7.3008-1.4805zm27.313 0a6.2906 19.95 60 0 0-7.3019 1.4811 7.1893 21.568 0 0 1 0.69918 5.9676 21.568 7.1893 30 0 1 4.547 3.3543 6.2906 19.95 60 0 0 5.612-9.3669 6.2906 19.95 60 0 0-3.5564-1.4361zm-8.0042 1.7301a6.2906 19.95 60 0 0-4.8447 2.0557 21.568 7.1893 30 0 1 2.5781 1.3891l0.20877 0.11988a21.568 7.1893 30 0 1 2.7001 1.6562 6.2906 19.95 0 0 0-0.64234-5.2209zm-10.971 0.11885a6.2906 19.95 0 0 0-0.59893 4.8633 7.1893 21.568 60 0 1 2.3228-1.4175l0.20826-0.11988a7.1893 21.568 60 0 1 2.5786-1.3896 19.95 6.2906 30 0 0-4.5108-1.9363zm5.3185 2.327a6.2906 19.95 60 0 0-3.0422 1.6304l-0.19327 0.11112a6.2906 19.95 60 0 0-2.7523 1.6939 6.2906 19.95 0 0 0-0.12299 4.021 6.2906 19.95 0 0 0 0.0961 3.3553 19.95 6.2906 30 0 0 3.0556 1.881 19.95 6.2906 30 0 0 2.959 1.5973 6.2906 19.95 60 0 0 2.959-1.5973 6.2906 19.95 60 0 0 3.421-2.1167 6.2906 19.95 0 0 0 0.0904-3.2308l-5.3e-4 -0.2227a6.2906 19.95 0 0 0-0.10852-3.4473 19.95 6.2906 30 0 0-3.1264-1.9337l-0.19275-0.11112a19.95 6.2906 30 0 0-3.0422-1.6304zm7.1024 4.1755a7.1893 21.568 0 0 1 0.0863 2.929l5.3e-4 0.2408a7.1893 21.568 0 0 1-0.0661 2.7197 6.2906 19.95 60 0 0 3.914-2.9512 19.95 6.2906 30 0 0-3.9341-2.9383zm-14.209 4e-3a6.2906 19.95 60 0 0-3.93 2.9357 19.95 6.2906 30 0 0 3.9109 2.9497 7.1893 21.568 0 0 1-0.0631-2.5978 7.1893 21.568 0 0 1 0.0822-3.2876zm-4.764 3.653a6.2906 19.95 60 0 0-1.2066 1.0976 1.7044 1.7044 0 0 1 0.42323 1.1018v0.0191a1.7044 1.7044 0 0 1-1.6996 1.7043 1.7044 1.7044 0 0 1-1.0413-0.35398 6.2906 19.95 60 0 0-1.9808 5.7495 6.2906 19.95 60 0 0 10.962-0.11729 7.1893 21.568 0 0 1-0.64131-5.6167 21.568 7.1893 30 0 1-4.8157-3.5843zm23.742 0a7.1893 21.568 60 0 1-4.8173 3.5853 7.1893 21.568 0 0 1-0.63201 5.6188 19.95 6.2906 30 0 0 10.954 0.11419 19.95 6.2906 30 0 0-1.7193-5.426 1.7044 1.7044 0 0 1-0.74931 0.17674 1.7044 1.7044 0 0 1-1.7089-1.695 1.7044 1.7044 0 0 1 0.26149-0.9131 19.95 6.2906 30 0 0-1.589-1.4609zm-5.5749 4.085a7.1893 21.568 60 0 1-2.806 1.7152 7.1893 21.568 60 0 1-2.2831 1.2449 19.95 6.2906 30 0 0 4.5124 1.9074 6.2906 19.95 0 0 0 0.57671-4.8674zm-12.215 0.23772a6.2906 19.95 0 0 0 0.53951 4.5077 6.2906 19.95 60 0 0 4.1713-1.7854 21.568 7.1893 30 0 1-2.2826-1.2449 21.568 7.1893 30 0 1-2.4283-1.4774zm5.9185 3.3378a7.1893 21.568 60 0 1-5.1821 2.2516 6.2906 19.95 0 0 0 5.3795 9.5524 6.2906 19.95 0 0 0 5.3175-9.4263 21.568 7.1893 30 0 1-5.5149-2.3776z"/>
 </g>
</svg>

