<?xml version="1.0" encoding="UTF-8" standalone="no"?>
<svg
   xmlns:dc="http://purl.org/dc/elements/1.1/"
   xmlns:cc="http://creativecommons.org/ns#"
   xmlns:rdf="http://www.w3.org/1999/02/22-rdf-syntax-ns#"
   xmlns:svg="http://www.w3.org/2000/svg"
   xmlns="http://www.w3.org/2000/svg"
   xmlns:sodipodi="http://sodipodi.sourceforge.net/DTD/sodipodi-0.dtd"
   xmlns:inkscape="http://www.inkscape.org/namespaces/inkscape"
   class="fs-Logo"
   version="1.1"
   viewBox="0 0 52.917 52.917"
   id="svg866"
   sodipodi:docname="help-center-logo.svg"
   inkscape:version="0.92.3 (2405546, 2018-03-11)">
  <metadata
     id="metadata872">
    <rdf:RDF>
      <cc:Work
         rdf:about="">
        <dc:format>image/svg+xml</dc:format>
        <dc:type
           rdf:resource="http://purl.org/dc/dcmitype/StillImage" />
        <dc:title></dc:title>
      </cc:Work>
    </rdf:RDF>
  </metadata>
  <defs
     id="defs870" />
  <sodipodi:namedview
     pagecolor="#ffffff"
     bordercolor="#666666"
     borderopacity="1"
     objecttolerance="10"
     gridtolerance="10"
     guidetolerance="10"
     inkscape:pageopacity="0"
     inkscape:pageshadow="2"
     inkscape:window-width="1853"
     inkscape:window-height="1017"
     id="namedview868"
     showgrid="false"
     inkscape:zoom="2.6190625"
     inkscape:cx="9.9556856"
     inkscape:cy="26.4585"
     inkscape:window-x="67"
     inkscape:window-y="34"
     inkscape:window-maximized="1"
     inkscape:current-layer="svg866" />
  <g
     id="g895"
     transform="translate(38.945233,-291.04337)"
     style="fill:#1a1a1a">
    <path
       id="path893"
       d="m 0,244.08 v 52.917 H 52.917 V 244.08 Z m 8.8403,6.6415 35.236,12.781 v 4.5625 l -35.236,12.781 v -5.0023 l 28.365,-10.032 -28.365,-10.087 z m 3.7796,11.39 a 3.7798,3.7798 0 0 1 3.7796,3.7801 3.7798,3.7798 0 0 1 -3.7796,3.7796 3.7798,3.7798 0 0 1 -3.7796,-3.7796 3.7798,3.7798 0 0 1 3.7796,-3.7801 z m 31.456,10.461 v 5.0023 l -35.236,12.781 v -5.0023 z"
       style="fill:#1a1a1a"
       inkscape:connector-curvature="0" />
  </g>
  <g
     id="g1011"
     transform="translate(-5.3454242,-22.527145)"
     inkscape:export-xdpi="1814.162"
     inkscape:export-ydpi="1814.162">
    <path
       inkscape:connector-curvature="0"
       id="rect899"
       d="m -92.608116,32.472098 h 52.917 v 52.917 h -52.917 z"
       style="opacity:1;fill:#ffff00;fill-opacity:1;stroke:none;stroke-width:60;stroke-miterlimit:4;stroke-dasharray:none;stroke-dashoffset:0;stroke-opacity:1" />
    <path
       d="m -92.608116,32.4721 v 52.917 h 52.917 v -52.917 z m 8.8403,6.6415 35.236,12.781 v 4.5625 l -35.236,12.781 v -5.0023 l 28.365,-10.032 -28.365,-10.087 z m 3.7796,11.39 a 3.7798,3.7798 0 0 1 3.7796,3.7801 3.7798,3.7798 0 0 1 -3.7796,3.7796 3.7798,3.7798 0 0 1 -3.7796,-3.7796 3.7798,3.7798 0 0 1 3.7796,-3.7801 z m 31.456,10.461 v 5.0023 l -35.236,12.781 v -5.0023 z"
       id="path862"
       inkscape:connector-curvature="0"
       style="fill:#666666" />
  </g>
</svg>
