<?xml version="1.0" encoding="UTF-8" standalone="no"?>
<svg
   xmlns:dc="http://purl.org/dc/elements/1.1/"
   xmlns:cc="http://creativecommons.org/ns#"
   xmlns:rdf="http://www.w3.org/1999/02/22-rdf-syntax-ns#"
   xmlns:svg="http://www.w3.org/2000/svg"
   xmlns="http://www.w3.org/2000/svg"
   xmlns:sodipodi="http://sodipodi.sourceforge.net/DTD/sodipodi-0.dtd"
   xmlns:inkscape="http://www.inkscape.org/namespaces/inkscape"
   sodipodi:docname="logoideas.svg"
   inkscape:version="1.1-dev (1:0.92.0+devel+202005060039+b792700)"
   id="svg959"
   version="1.1"
   viewBox="0 0 210 297"
   height="297mm"
   width="210mm">
  <defs
     id="defs953" />
  <sodipodi:namedview
     inkscape:window-maximized="1"
     inkscape:window-y="34"
     inkscape:window-x="67"
     inkscape:window-height="1017"
     inkscape:window-width="1853"
     showgrid="false"
     inkscape:current-layer="layer1"
     inkscape:document-units="mm"
     inkscape:cy="560"
     inkscape:cx="-298.57143"
     inkscape:zoom="0.35"
     inkscape:pageshadow="2"
     inkscape:pageopacity="0.0"
     borderopacity="1.0"
     bordercolor="#666666"
     pagecolor="#ffffff"
     id="base" />
  <metadata
     id="metadata956">
    <rdf:RDF>
      <cc:Work
         rdf:about="">
        <dc:format>image/svg+xml</dc:format>
        <dc:type
           rdf:resource="http://purl.org/dc/dcmitype/StillImage" />
      </cc:Work>
    </rdf:RDF>
  </metadata>
  <g
     id="layer1"
     inkscape:groupmode="layer"
     inkscape:label="Layer 1">
    <g
       transform="matrix(1.7404756,0,0,1.7404756,-470.31034,-254.38379)"
       id="g1514">
      <rect
         style="opacity:1;fill:#2affd5;fill-opacity:1;stroke:none;stroke-width:14.3819952;stroke-miterlimit:4;stroke-dasharray:28.76398781, 14.38199388;stroke-dashoffset:0;stroke-opacity:0.2956522"
         id="rect881"
         width="150.07239"
         height="150.07239"
         x="-7.0004783"
         y="76.064995" />
      <path
         inkscape:connector-curvature="0"
         id="path865"
         d="M -7.0004772,76.065026 V 226.13742 H 143.0719 V 76.065026 Z M 18.070573,94.900294 117.99971,131.14715 v 12.93923 l -99.929137,36.24686 v -14.1865 l 80.44302,-28.45071 -80.44302,-28.60669 z m 10.718929,32.301986 a 10.719497,10.719497 0 0 1 10.71893,10.72034 10.719497,10.719497 0 0 1 -10.71893,10.71894 10.719497,10.719497 0 0 1 -10.718929,-10.71894 10.719497,10.719497 0 0 1 10.718929,-10.72034 z m 89.209088,29.66735 v 14.1865 L 18.069439,207.30299 V 193.1165 Z"
         style="fill:#f2f2f2;stroke-width:2.83599544" />
    </g>
  </g>
</svg>
