<?xml version="1.0" encoding="UTF-8" standalone="no"?>
<svg class="q-Logo--q" xmlns:dc="http://purl.org/dc/elements/1.1/" xmlns:cc="http://creativecommons.org/ns#" xmlns:rdf="http://www.w3.org/1999/02/22-rdf-syntax-ns#" xmlns:svg="http://www.w3.org/2000/svg" xmlns="http://www.w3.org/2000/svg" width="200" height="200" viewBox="0 0 52.916666 52.916669" version="1.1" id="svg8">
   <defs id="defs2"/>
   <g id="layer1" transform="translate(0,-11.249983)">
      <path class="q-Logo--square" d="M 0,11.249983 V 64.16665 H 52.916666 V 11.249983 Z m 25.378075,7.538147 h 2.181875 c 1.041019,0 2.017825,0.199683 2.930498,0.598982 0.912674,0.385034 1.711306,0.919755 2.395814,1.604264 0.684502,0.684503 1.219222,1.48314 1.604259,2.395811 0.399294,0.912677 0.598976,1.889484 0.598976,2.930503 v 16.470915 c 0,0.998239 -0.178276,1.939432 -0.534788,2.823587 -0.356511,0.884155 -0.848517,1.661376 -1.475978,2.331624 -0.627465,0.670243 -1.368973,1.219271 -2.224605,1.647091 -0.841367,0.413555 -1.746947,0.655956 -2.716663,0.72726 l 2.80222,6.31034 H 28.18029 l -2.802215,-6.31034 c -1.041014,0 -2.024928,-0.192481 -2.951858,-0.577515 -0.912675,-0.399298 -1.711305,-0.941221 -2.395813,-1.62573 -0.684502,-0.684503 -1.226429,-1.48304 -1.625722,-2.395715 C 18.01965,44.806536 17.82717,43.829626 17.82717,42.788605 V 26.31769 c 0,-1.041019 0.19248,-2.017826 0.577512,-2.930503 0.399293,-0.912671 0.94122,-1.711308 1.625722,-2.395811 0.684508,-0.684509 1.483138,-1.21923 2.395813,-1.604264 0.92693,-0.399299 1.910844,-0.598982 2.951858,-0.598982 z m 0.128381,2.631116 c -0.684502,0 -1.32627,0.128354 -1.925214,0.385043 -0.584679,0.256689 -1.105196,0.606034 -1.561534,1.048109 -0.442074,0.442081 -0.791421,0.962599 -1.048109,1.56154 -0.256693,0.584684 -0.385043,1.219249 -0.385043,1.903752 v 16.470915 c 0,0.684503 0.12835,1.326277 0.385043,1.925217 0.256688,0.584686 0.606035,1.105203 1.048109,1.561538 0.456338,0.442075 0.976855,0.791422 1.561534,1.048115 0.598944,0.256689 1.240712,0.385043 1.925214,0.385043 h 1.925115 c 0.684507,0 1.319168,-0.128354 1.903853,-0.385043 0.598937,-0.256693 1.119455,-0.60604 1.561529,-1.048115 0.442079,-0.456335 0.791424,-0.976852 1.048113,-1.561538 0.256688,-0.59894 0.385042,-1.240714 0.385042,-1.925217 V 26.31769 c 0,-0.684503 -0.128354,-1.319068 -0.385042,-1.903752 -0.256689,-0.598941 -0.606034,-1.119459 -1.048113,-1.56154 -0.442074,-0.442075 -0.962592,-0.79142 -1.561529,-1.048109 -0.584685,-0.256689 -1.219346,-0.385043 -1.903853,-0.385043 z" id="rect892"/>
   </g>
</svg>
