<?xml version="1.0" encoding="UTF-8" standalone="no"?>
<svg
   xmlns:svg="http://www.w3.org/2000/svg"
   xmlns="http://www.w3.org/2000/svg"
   xmlns:sodipodi="http://sodipodi.sourceforge.net/DTD/sodipodi-0.dtd"
   xmlns:inkscape="http://www.inkscape.org/namespaces/inkscape"
   inkscape:version="1.1-dev (1:0.92.0+devel+202005110039+9ce7266)"
   sodipodi:docname="logo-playground.svg"
   id="svg8"
   version="1.1"
   viewBox="0 0 52.916666 52.916669"
   height="200"
   width="200"
   class="q-Logo--q">
  <sodipodi:namedview
     inkscape:current-layer="svg8"
     inkscape:window-maximized="1"
     inkscape:window-y="34"
     inkscape:window-x="67"
     inkscape:cy="100"
     inkscape:cx="100"
     inkscape:zoom="1.4919953"
     showgrid="false"
     id="namedview1064"
     inkscape:window-height="1017"
     inkscape:window-width="1853"
     inkscape:pageshadow="2"
     inkscape:pageopacity="0"
     guidetolerance="10"
     gridtolerance="10"
     objecttolerance="10"
     borderopacity="1"
     bordercolor="#666666"
     pagecolor="#ffffff" />
  <defs
     id="defs2" />
  <rect
     y="0"
     x="0"
     height="52.916668"
     width="52.916668"
     id="rect1128"
     style="fill:#f2f2f2;stroke-width:1.5875" />
  <path
     d="m 27.127009,7.5106553 c -1.29868,0.0052 -2.62673,-0.07704 -3.88852,0.294555 -2.31974,0.649526 -4.325242,2.3742087 -5.261195,4.6009697 -0.505575,1.173284 -0.689306,2.466058 -0.636029,3.737429 5.06e-4,5.222134 -0.01162,10.444397 0.01499,15.6664 0.121068,2.646998 1.692979,5.158258 3.983464,6.475979 1.06487,0.623838 2.27594,1.003336 3.50939,1.073444 0.89628,2.017317 1.79219,4.034762 2.68872,6.051948 1.5129,0 3.02579,0 4.53869,0 -0.91942,-2.071001 -1.83906,-4.141937 -2.75856,-6.21294 2.73376,-0.605467 5.06855,-2.751251 5.88575,-5.431809 0.3476,-1.09675 0.40743,-2.258932 0.37142,-3.401642 -0.003,-5.111713 0.009,-10.223619 -0.0206,-15.335136 -0.17047,-2.818784 -1.94919,-5.4883327 -4.50697,-6.6968917 -1.21004,-0.598424 -2.57364,-0.870142 -3.92053,-0.822306 z m -1.52857,4.2472187 c 0.72006,0.0174 1.45025,-0.02201 2.16352,0.0274 0.39911,0.02876 0.81542,0.134648 1.18542,0.311406 0.9836,0.446295 1.76303,1.307023 2.0787,2.34355 0.21332,0.629032 0.17574,1.319214 0.1732,1.982846 -0.002,5.086395 0.007,10.173049 -0.018,15.259315 -0.12489,1.543628 -1.2913,2.944182 -2.79277,3.333414 -0.74095,0.203835 -1.5109,0.10776 -2.27374,0.133532 -0.69141,0.0065 -1.40807,-0.0065 -2.05019,-0.294717 -1.2746,-0.531983 -2.23702,-1.791929 -2.32852,-3.181187 -0.0453,-0.598846 -0.005,-1.226191 -0.0182,-1.836527 1.1e-4,-4.857762 -0.0132,-9.71572 0.0118,-14.573352 0.0854,-1.301927 0.92016,-2.512888 2.08372,-3.092039 0.31174,-0.152662 0.66617,-0.280676 1.01349,-0.342021 0.25766,-0.0483 0.51349,-0.06931 0.77162,-0.07165 z"
     style="color:#000000;-inkscape-font-specification:'Abel, Normal';fill:#333333;fill-opacity:1;stroke:none;stroke-width:1.58749;stroke-miterlimit:4;stroke-dasharray:none;stroke-opacity:1"
     id="path1051" />
  <rect
     style="fill:#f2f2f2;stroke-width:1.5875"
     id="rect1130"
     width="52.916668"
     height="52.916668"
     x="-70.059654"
     y="-41.257053" />
  <path
     id="path1132"
     style="color:#000000;-inkscape-font-specification:'Abel, Normal';fill:#333333;fill-opacity:1;stroke:none;stroke-width:1.58749;stroke-miterlimit:4;stroke-dasharray:none;stroke-opacity:1"
     d="m -42.932645,-33.746397 c -1.29868,0.0052 -2.62673,-0.07704 -3.88852,0.294555 -2.31974,0.649526 -4.325242,2.374209 -5.261195,4.60097 -0.505575,1.173284 -0.689306,2.466058 -0.636029,3.737429 5.06e-4,5.222134 -0.01162,10.444397 0.01499,15.6664 0.121068,2.646998 1.692979,5.158258 3.983464,6.475979 1.06487,0.623838 2.27594,1.003336 3.50939,1.073444 0.89628,2.01731704 1.79219,4.034762 2.68872,6.051948 1.5129,0 3.02579,0 4.53869,0 -0.91942,-2.071001 -1.83906,-4.14193696 -2.75856,-6.21294 2.73376,-0.605467 5.06855,-2.751251 5.88575,-5.431809 0.3476,-1.09675 0.40743,-2.258932 0.37142,-3.401642 -0.003,-5.111713 0.009,-10.223619 -0.0206,-15.335136 -0.17047,-2.818784 -1.94919,-5.488333 -4.50697,-6.696892 -1.21004,-0.598424 -2.57364,-0.870142 -3.92053,-0.822306 z m -1.52857,4.247219 c 0.72006,0.0174 1.45025,-0.02201 2.16352,0.0274 0.39911,0.02876 0.81542,0.134648 1.18542,0.311406 0.9836,0.446295 1.76303,1.307023 2.0787,2.34355 0.21332,0.629032 0.17574,1.319214 0.1732,1.982846 -0.002,5.086395 0.007,10.173049 -0.018,15.259315 -0.12489,1.543628 -1.2913,2.944182 -2.79277,3.333414 -0.74095,0.203835 -1.5109,0.10776 -2.27374,0.133532 -0.69141,0.0065 -1.40807,-0.0065 -2.05019,-0.294717 -1.2746,-0.531983 -2.23702,-1.791929 -2.32852,-3.181187 -0.0453,-0.598846 -0.005,-1.226191 -0.0182,-1.836527 1.1e-4,-4.857762 -0.0132,-9.71572 0.0118,-14.573352 0.0854,-1.301927 0.92016,-2.512888 2.08372,-3.092039 0.31174,-0.152662 0.66617,-0.280676 1.01349,-0.342021 0.25766,-0.0483 0.51349,-0.06931 0.77162,-0.07165 z" />
</svg>
