<?xml version="1.0" encoding="UTF-8" standalone="no"?>
<svg class="q-Logo-q" xmlns:svg="http://www.w3.org/2000/svg" xmlns="http://www.w3.org/2000/svg" class="q-Logo--q" width="200" height="200" viewBox="0 0 52.916666 52.916669" version="1.1" id="svg8">
   <defs id="defs2"/>
   <path class="q-Logo-square" id="rect1128" d="M 0 0 L 0 200 L 200 200 L 200 0 L 0 0 z M 98.830078 28.371094 C 100.06541 28.375526 101.30024 28.391632 102.52734 28.386719 C 107.61795 28.205922 112.77232 29.232381 117.3457 31.494141 C 127.0129 36.061923 133.73461 46.152969 134.37891 56.806641 C 134.49082 76.12576 134.44569 95.445765 134.45703 114.76562 C 134.59313 119.08453 134.36649 123.47589 133.05273 127.62109 C 129.9641 137.75233 121.14091 145.86396 110.80859 148.15234 C 114.28388 155.97976 117.75939 163.8054 121.23438 171.63281 L 104.08008 171.63281 C 100.69163 164.0088 97.305484 156.38427 93.917969 148.75977 C 89.256111 148.49479 84.679002 147.06095 80.654297 144.70312 C 71.997346 139.72277 66.055236 130.23097 65.597656 120.22656 C 65.497083 100.48986 65.542917 80.752828 65.541016 61.015625 C 65.339654 56.210443 66.034478 51.323131 67.945312 46.888672 C 71.482773 38.472567 79.062557 31.954901 87.830078 29.5 C 91.406806 28.44666 95.124095 28.357798 98.830078 28.371094 z M 96.75 44.439453 C 95.774391 44.448297 94.807817 44.526433 93.833984 44.708984 C 92.521279 44.940839 91.182136 45.424963 90.003906 46.001953 C 85.606199 48.19087 82.449725 52.768784 82.126953 57.689453 C 82.032465 76.049007 82.0844 94.409482 82.083984 112.76953 C 82.133874 115.07631 81.981131 117.44759 82.152344 119.71094 C 82.498171 124.96168 86.135739 129.72373 90.953125 131.73438 C 93.380035 132.82371 96.087969 132.87222 98.701172 132.84766 C 101.58434 132.75025 104.49448 133.11415 107.29492 132.34375 C 112.96977 130.87263 117.37759 125.57832 117.84961 119.74414 C 117.94406 100.52046 117.91003 81.296439 117.91797 62.072266 C 117.92757 59.56405 118.06992 56.955569 117.26367 54.578125 C 116.07059 50.660543 113.12575 47.407487 109.4082 45.720703 C 108.00978 45.052641 106.43617 44.651668 104.92773 44.542969 C 102.2319 44.356222 99.471487 44.505217 96.75 44.439453 z " transform="scale(0.26458334)"/>
</svg>